{"accessors" : [{"bufferView" : 0, "byteOffset" : 0, "componentType" : 5123, "count" : 73908, "type" : "SCALAR", "max" : [49286], "min" : [0]}, {"bufferView" : 1, "byteOffset" : 0, "componentType" : 5126, "count" : 49287, "type" : "VEC3", "max" : [1.877659559249878, 5.072308540344238, 2.564906597137451], "min" : [-1.877659559249878, -4.018156051635742, -1.300429105758667], "name" : "POSITION"}, {"bufferView" : 1, "byteOffset" : 12, "componentType" : 5126, "count" : 49287, "type" : "VEC3", "max" : [0.9999753832817078, 0.9968332052230835, 1.0000044107437134], "min" : [-0.9999753832817078, -0.9993382096290588, -1.0000044107437134], "name" : "NORMAL"}, {"bufferView" : 1, "byteOffset" : 24, "componentType" : 5126, "count" : 49287, "type" : "VEC2", "max" : [0.9854881167411804, 0.9913836717605591], "min" : [0.03347769379615784, 0.008616447448730469], "name" : "TEXCOORD_0"}], "asset" : {"generator" : "Aspose.3D 25.2.0", "version" : "2.0"}, "buffers" : [{"uri" : "data:application/octet-stream;base64,", "byteLength" : 1725008}], "bufferViews" : [{"buffer" : 0, "byteOffset" : 0, "byteLength" : 147816, "target" : 34963}, {"buffer" : 0, "byteOffset" : 147820, "byteLength" : 1577184, "byteStride" : 32, "target" : 34962}], "materials" : [{"name" : "Material.001", "pbrMetallicRoughness" : {"baseColorFactor" : [0.800000011920929, 0.800000011920929, 0.800000011920929, 1], "metallicFactor" : 1, "roughnessFactor" : 1}, "emissiveFactor" : [0, 0, 0], "alphaMode" : "OPAQUE", "doubleSided" : false}], "meshes" : [{"primitives" : [{"attributes" : {"POSITION" : 1, "NORMAL" : 2, "TEXCOORD_0" : 3}, "indices" : 0, "material" : 0, "mode" : 4}], "name" : "Cube.001"}], "nodes" : [{"matrix" : [697.9581909179688, 0, 0, 0, 0, -0.00011371182276368877, -697.9581909179594, 0, 0, 697.9581909179594, -0.00011371182276368877, 0, 0, 5.286335726850666E-05, 8.277722372440621E-05, 1], "mesh" : 0, "name" : "Cube.001"}], "scene" : 0, "scenes" : [{"nodes" : [0]}]}